<?xml version="1.0" encoding="UTF-8"?>
<!-- Generated by Pixelmator Pro 3.6.17 -->
<svg width="512" height="512" viewBox="0 0 512 512" xmlns="http://www.w3.org/2000/svg">
    <linearGradient id="linearGradient1" x1="317.015625" y1="466.320313" x2="177.023438" y2="28.710938" gradientUnits="userSpaceOnUse">
        <stop offset="0" stop-color="#edfffa" stop-opacity="1"/>
        <stop offset="1" stop-color="#fffcf3" stop-opacity="1"/>
    </linearGradient>
    <filter id="filter1" x="0" y="0" width="512" height="512" filterUnits="userSpaceOnUse" primitiveUnits="userSpaceOnUse" color-interpolation-filters="sRGB">
        <feGaussianBlur stdDeviation="7"/>
        <feOffset dx="-0" dy="8" result="offsetblur"/>
        <feFlood flood-color="#000000" flood-opacity="0.201199"/>
        <feComposite in2="offsetblur" operator="in"/>
        <feMerge>
            <feMergeNode/>
            <feMergeNode in="SourceGraphic"/>
        </feMerge>
    </filter>
    <path id="Rectangle" fill="url(#linearGradient1)" fill-opacity="0.978652" fill-rule="evenodd" stroke="#000000" stroke-opacity="0.296802" stroke-linecap="round" stroke-linejoin="round" filter="url(#filter1)" d="M 23 337.700012 C 23 387.498413 23 412.397614 33.455326 431.066956 C 40.844566 444.261383 51.738621 455.155426 64.93306 462.544678 C 83.602386 473 108.501595 473 158.300003 473 L 353.700012 473 C 403.498413 473 428.397614 473 447.066956 462.544678 C 460.261383 455.155426 471.155457 444.261383 478.544678 431.066956 C 489 412.397614 489 387.498413 489 337.700012 L 489 153.299988 C 489 103.501587 489 78.602386 478.544678 59.933044 C 471.155426 46.738617 460.261383 35.844543 447.066956 28.455322 C 428.397614 18 403.498413 18 353.700012 18 L 158.300003 18 C 108.501595 18 83.602386 18 64.93306 28.455322 C 51.738625 35.844574 40.844566 46.738617 33.45533 59.933044 C 23.000002 78.602386 23.000002 103.501587 23.000002 153.299988 Z"/>
    <g id="Group">
        <path id="Arrow" fill="#000000" fill-opacity="0.978652" fill-rule="evenodd" stroke="none" d="M 439.152557 84.008392 L 430.870209 212.977722 L 387.561829 176.921692 L 185.078995 420.132294 L 154.646057 394.795624 L 357.128876 151.585022 L 313.820465 115.528992 Z"/>
        <path id="Line" fill="none" stroke="#000000" stroke-width="38.076321" stroke-linecap="square" d="M 174.253769 387.274475 L 77.182083 300.417358"/>
    </g>
</svg>
